<svg xmlns="http://www.w3.org/2000/svg" xmlns:xlink="http://www.w3.org/1999/xlink" id="logo" version="1.1" x="0px" y="0px" enable-background="new 0 0 800 800" xml:space="preserve" viewBox="115.15 269.68 636.18 337.77">
<g>
	<g>
		<g>
			<path class="first-letter" fill="#FFFFFF" d="M115.155,345.43c0-2.665,0.923-4.926,2.771-6.773c1.848-1.847,4.104-2.771,6.773-2.771h126.845     c2.665,0,4.926,0.924,6.773,2.771s2.771,4.108,2.771,6.773c0,2.67-0.924,4.926-2.771,6.773s-4.108,2.771-6.773,2.771h-53.878     v169.023c0,2.67-0.923,4.926-2.771,6.773c-1.847,1.847-4.108,2.771-6.773,2.771c-2.67,0-4.926-0.924-6.773-2.771     c-1.847-1.848-2.771-4.104-2.771-6.773V354.975h-53.878c-2.67,0-4.926-0.924-6.773-2.771     C116.079,350.356,115.155,348.1,115.155,345.43z"/>
			<path class="second-letter" fill="#FFFFFF" d="M293.104,384.53c9.852,0,19.242,2.001,28.171,6.004c8.928,4.002,16.779,9.39,23.552,16.163     c6.773,6.773,12.161,14.678,16.164,23.707c4.002,9.033,6.003,18.679,6.003,28.939c0,10.059-1.953,19.551-5.85,28.479     c-3.901,8.929-9.188,16.779-15.855,23.553c-6.672,6.773-14.523,12.113-23.553,16.01c-9.034,3.9-18.78,5.85-29.248,5.85     c-10.266,0-19.858-1.848-28.786-5.542s-16.779-8.823-23.552-15.394c-6.773-6.566-12.113-14.365-16.01-23.398     c-3.901-9.029-5.85-18.882-5.85-29.557c0-10.261,1.896-19.857,5.696-28.786c3.795-8.929,9.029-16.726,15.702-23.398     c6.667-6.667,14.571-12.007,23.706-16.009C272.525,387.147,282.43,384.944,293.104,384.53z M237.379,459.344     c0,7.596,1.434,14.73,4.31,21.397c2.872,6.673,6.821,12.522,11.854,17.55c5.027,5.031,10.876,8.98,17.549,11.853     c6.667,2.876,13.801,4.31,21.397,4.31c7.591,0,14.778-1.434,21.551-4.31c6.773-2.872,12.671-6.821,17.703-11.853     c5.027-5.027,8.976-10.877,11.853-17.55c2.872-6.667,4.31-13.802,4.31-21.397c0-7.591-1.438-14.777-4.31-21.551     c-2.877-6.773-6.826-12.671-11.853-17.703c-5.032-5.027-10.93-8.977-17.703-11.854c-6.773-2.871-13.96-4.31-21.551-4.31     c-7.596,0-14.729,1.438-21.397,4.31c-6.672,2.877-12.522,6.826-17.549,11.854c-5.032,5.032-8.981,10.93-11.854,17.703     C238.812,444.566,237.379,451.753,237.379,459.344z"/>
			<path fill="#FFFFFF" d="M632.553,384.172c11.521,0.415,22.014,3.346,31.479,8.795c9.461,5.454,17.591,11.882,24.38,19.288     v-67.278c0-2.671,0.927-4.938,2.778-6.79s4.113-2.777,6.789-2.777c2.672,0,4.938,0.926,6.79,2.777     c1.852,1.852,2.777,4.118,2.777,6.79v114.188c0,10.7-1.958,20.576-5.864,29.627c-3.91,9.056-9.258,16.873-16.048,23.455     c-6.789,6.586-14.712,11.727-23.763,15.43c-9.057,3.704-18.623,5.556-28.701,5.556c-10.493,0-20.268-1.953-29.319-5.864     c-9.056-3.905-16.925-9.258-23.608-16.047c-6.688-6.79-11.988-14.66-15.894-23.609c-3.911-8.95-5.864-18.465-5.864-28.547     c0-10.285,2.006-19.954,6.019-29.01c4.012-9.051,9.412-16.975,16.202-23.764c6.789-6.79,14.659-12.19,23.608-16.202     C613.265,386.178,622.678,384.172,632.553,384.172z M688.412,459.166c-0.414-8.024-2.111-15.432-5.092-22.221     c-2.984-6.789-6.943-12.653-11.882-17.591c-4.938-4.938-10.7-8.796-17.282-11.573c-6.587-2.777-13.579-4.166-20.985-4.166     c-7.614,0-14.814,1.441-21.604,4.32c-6.79,2.884-12.706,6.843-17.745,11.882c-5.044,5.044-9.003,10.956-11.882,17.745     c-2.884,6.789-4.32,13.994-4.32,21.604c0,7.613,1.437,14.766,4.32,21.448c2.879,6.688,6.838,12.552,11.882,17.591     c5.039,5.045,10.955,9.004,17.745,11.883c6.789,2.883,13.989,4.32,21.604,4.32c7.608,0,14.76-1.438,21.448-4.32     c6.684-2.879,12.547-6.838,17.591-11.883c5.039-5.039,8.998-10.902,11.882-17.591     C686.971,473.932,688.412,466.779,688.412,459.166z"/>
		</g>
	</g>
	<g>
		<g>
			<defs>
				<path class="hide" id="XMLID_1_" d="M572.592,331.079c-1.66-2.93-4.18-5.7-7.35-7.83c-3.17-2.12-7.011-3.6-11.29-3.93      c-0.811-0.06-1.62-0.09-2.44-0.09c-10.13,0-21.26,4.82-34.85,15.28c-4.7-3.95-10.78-6.5-17.73-6.5c-2.12,0-4.229,0.26-6.31,0.74      c-12.86,3-21.57,14.41-21.57,27.12c0,0.01,0,0.01,0,0.02c0,0.53,0.021,1.06,0.05,1.6c-3.479,1.87-7.33,3.87-11.45,5.91      c-6.06,2.99-12.699,6.07-19.64,8.92c-6.54,2.69-13.43,6.16-20.13,10.56s-13.21,9.73-19,16.13      c-11.52,12.68-19.95,30.01-19.95,51.36v0.299c0,7.631,1.06,15.74,3.31,24.32c4.93,18.86,15.91,33.43,29.88,43.301      c13.97,9.859,30.95,15.01,47.899,15.01h0.4c23.69,0,47.979-9.93,64.66-30.76c0.2,0.77,0.41,1.529,0.63,2.289      c1.04,3.51,2.28,6.92,3.86,10.141c1.569,3.22,3.479,6.25,5.859,8.98c2.3,2.68,5.24,5.02,8.62,6.689s7.2,2.66,11.24,2.66h0.33      c2.45,0,4.68-0.99,6.29-2.6c1.609-1.611,2.609-3.83,2.609-6.291c0-2.459-1-4.68-2.609-6.3c-1.61-1.6-3.84-2.6-6.29-2.6      c-1.5-0.05-2.63-0.271-3.681-0.78c-1.05-0.52-2.01-1.32-3.159-2.55c-6.261-6.25-9.54-25.729-10.12-41.95      c0.35-2.83,0.52-5.66,0.52-8.48v-0.149c-0.02-9.39-1.819-18.681-5.069-27.38c-3.24-8.7-7.931-16.811-13.73-23.84      c-5.78-7.01-12.8-13.01-20.73-17.28c-7.93-4.26-16.779-6.77-26.199-6.79h-0.101c-10.33,0-21.1,3.15-31.31,9.8      c-2.62,1.71-4.05,4.56-4.05,7.47c0,1.67,0.47,3.351,1.439,4.851c1.69,2.62,4.55,4.04,7.46,4.04c1.66,0,3.34-0.46,4.84-1.43      c3.851-2.49,7.58-4.221,11.19-5.33c3.61-1.121,7.12-1.61,10.53-1.621h0.08c12.21,0,24.09,6.69,33.14,17.631      c7.31,8.779,12.44,20.15,14.12,31.67c0.128,0.979,0.251,2.12,0.354,3.287c-0.066-0.818-0.139-1.611-0.22-2.344      c0.311,2.37,0.471,4.74,0.471,7.09v0.181c0,0.179-0.008,0.356-0.01,0.534c0.001,0.068,0.004,0.135,0.004,0.204      c0.002,0.352-0.014,0.716-0.026,1.079c0,0.003,0,0.007,0,0.01c-0.016,0.458-0.044,0.914-0.072,1.369      c-0.007,0.095-0.012,0.188-0.02,0.282c-0.007,0.1-0.014,0.2-0.021,0.3c-0.014,0.166-0.028,0.33-0.044,0.496      c-0.003,0.033-0.008,0.067-0.011,0.102c-0.08,0.959-0.177,1.916-0.312,2.864c0.022-0.183,0.043-0.37,0.064-0.554      c-0.024,0.183-0.042,0.367-0.068,0.549c-0.37,2.761-0.99,5.471-1.84,8.121c-1.601,4.92-4.05,9.609-7.45,13.959      c-6.56,8.341-14.6,14.48-23.39,18.531c-8.79,4.06-18.33,6.039-27.891,6.06c-13.64-0.07-26.949-4.05-37.8-11.65      c-10.85-7.6-19.24-18.83-23.061-33.39c-0.959-3.631-1.639-7.1-2.079-10.41c-0.44-3.32-0.65-6.48-0.65-9.5      c0.03-8.391,1.58-15.75,4.28-22.28c2.689-6.54,6.53-12.25,11.1-17.36c4.57-5.08,9.931-9.469,15.55-13.159      c5.62-3.7,11.5-6.69,17.12-8.99c17.12-7.04,26.471-11.66,31.36-14.32c5.19,5.83,12.72,9.33,20.77,9.33      c2.08,0,4.211-0.23,6.32-0.72c6.43-1.51,11.83-5.11,15.62-9.93c3.78-4.82,5.96-10.85,5.96-17.21c0-2.07-0.229-4.19-0.71-6.29      l-0.007-0.028l-0.973,0.229c-0.021,0.01-0.03,0.03-0.051,0.04l-0.02-0.03l0.07-0.01c0.289-0.23,0.579-0.46,0.869-0.67      c0.021-0.02,0.04-0.03,0.061-0.05c12.689-9.77,22.82-12.53,26.3-12.07c1.39,0.19,2.31,0.48,3.03,0.97      c0.729,0.5,1.27,1.18,1.92,2.15c1,1.6,1.59,4.15,1.59,6.2c0,0.37-0.02,0.72-0.06,1.04c-0.021,0.3-0.051,0.56-0.091,0.8      c-0.14,1.45-1.239,3.77-2.85,6.32s-3.73,5.32-5.94,7.65c-2.17,2.39-4.319,4.46-5.899,5.91c-0.79,0.73-1.42,1.27-1.851,1.63      c-0.42,0.37-0.649,0.56-0.649,0.56c-2.15,1.76-3.26,4.32-3.26,6.89c0,1.99,0.649,3.98,2.01,5.63c0.79,0.96,1.74,1.72,2.77,2.26      c1.04,0.54,2.17,0.87,3.311,0.97c0.27,0.02,0.54,0.04,0.81,0.04c1.98,0,3.98-0.65,5.62-2.01l0.01-0.01      c0.101-0.09,1.36-1.11,3.24-2.83c1.89-1.73,4.42-4.16,7.061-7.07c2.6-2.97,5.42-6.29,7.819-10.07      c2.41-3.79,4.4-8.04,5.351-12.89c0.119-0.76,0.21-1.46,0.27-2.17c0.07-0.87,0.11-1.76,0.11-2.65      C576.662,341.378,575.502,336.079,572.592,331.079z M506.852,362.128c-1.37,1.75-3.33,3.07-5.66,3.6      c-0.75,0.17-1.52,0.26-2.29,0.27c-2.27,0-4.46-0.79-6.199-2.16c-1.75-1.37-3.061-3.33-3.59-5.65c-0.19-0.82-0.28-1.58-0.28-2.3      c0-2.28,0.8-4.47,2.17-6.22s3.32-3.06,5.649-3.59c0.82-0.2,1.591-0.28,2.28-0.28c2.28,0,4.46,0.79,6.21,2.15      c1.75,1.37,3.07,3.32,3.62,5.66c0.17,0.78,0.25,1.55,0.26,2.31C509.021,358.188,508.231,360.369,506.852,362.128z"/>
			</defs>
			<use xlink:href="#XMLID_1_" overflow="visible" fill="#484848"/>
			<clipPath id="XMLID_3_">
				<use xlink:href="#XMLID_1_" overflow="visible"/>
			</clipPath>
			<g clip-path="url(#XMLID_3_)">
				<path fill="#90BE51" stroke="#90BE51" stroke-width="1.51" d="M292.116,270.437l136.974,14.161l34.081-3.399L292.116,270.437z"/>
				<path fill="#8BB74F" stroke="#8BB74F" stroke-width="1.51" d="M292.116,270.437l171.055,10.762l84.442-0.755L292.116,270.437z"/>
				<path fill="#81AE43" stroke="#81AE43" stroke-width="1.51" d="M468.814,593.67l-127.64,13.028l227.061-14.538L468.814,593.67z"/>
				<path fill="#8AB651" stroke="#8AB651" stroke-width="1.51" d="M292.116,270.437l255.497,10.007l98.77-4.532L292.116,270.437z"/>
				<path fill="#9DCD5C" stroke="#9DCD5C" stroke-width="1.51" d="M646.383,275.912l41.678,8.874l35.816,5.853L646.383,275.912z"/>
				<path fill="#90C449" stroke="#90C449" stroke-width="1.51" d="M692.4,326.889l-5.21,40.215l37.338,17.37L692.4,326.889z"/>
				<path fill="#96C951" stroke="#96C951" stroke-width="1.51" d="M692.4,326.889l32.128,57.585l13.241-66.082L692.4,326.889z"/>
				<path fill="#89B844" stroke="#89B844" stroke-width="1.51" d="M568.235,592.16l-227.061,14.538l398.549-12.084L568.235,592.16z"/>
				<path fill="#95CA50" stroke="#95CA50" stroke-width="1.51" d="M683.937,572.335l-53.835-0.566l109.622,22.846L683.937,572.335z"/>
				<path fill="#93C84C" stroke="#93C84C" stroke-width="1.51" d="M630.102,571.769l-61.866,20.392l171.488,2.454L630.102,571.769z"/>
				<path fill="#8EC149" stroke="#8EC149" stroke-width="1.51" d="M737.77,318.393l-13.241,66.082l17.801,64.005L737.77,318.393z"/>
				<path fill="#86B743" stroke="#86B743" stroke-width="1.51" d="M724.528,384.474l-1.302,31.908l19.103,32.098L724.528,384.474z"/>
				<path fill="#8FC34A" stroke="#8FC34A" stroke-width="1.51" d="M696.526,528.721l38.204,25.488l15.847-44.368L696.526,528.721z"/>
				<path fill="#88BD44" stroke="#88BD44" stroke-width="1.51" d="M692.4,491.904l4.126,36.816l54.051-18.88L692.4,491.904z"/>
				<path fill="#86B743" stroke="#86B743" stroke-width="1.51" d="M742.329,448.479L692.4,491.904l58.177,17.937L742.329,448.479z"/>
				<path fill="#96CA52" stroke="#96CA52" stroke-width="1.51" d="M734.73,554.209l4.993,40.405l10.854-84.773L734.73,554.209z"/>
				<path fill="#85B445" stroke="#85B445" stroke-width="1.51" d="M737.77,318.393l4.56,130.087l8.248,61.361L737.77,318.393z"/>
				<path fill="#98CB54" stroke="#98CB54" stroke-width="1.51" d="M734.73,554.209l-50.794,18.126l55.787,22.279L734.73,554.209z"/>
				<path fill="#7FAD41" stroke="#7FAD41" stroke-width="1.51" d="M723.227,416.382l-41.244,29.832l60.347,2.266L723.227,416.382z"/>
				<path fill="#80B141" stroke="#80B141" stroke-width="1.51" d="M681.982,446.214l10.418,45.69l49.929-43.425L681.982,446.214z"/>
				<path fill="#9BCC5A" stroke="#9BCC5A" stroke-width="1.51" d="M723.877,290.638L692.4,326.889l45.369-8.497L723.877,290.638z"/>
				<path fill="#92C84B" stroke="#92C84B" stroke-width="1.51" d="M696.526,528.721l-12.59,43.614l50.794-18.126L696.526,528.721z"/>
				<path fill="#9CCC5A" stroke="#9CCC5A" stroke-width="1.51" d="M688.061,284.785l4.34,42.104l31.477-36.251L688.061,284.785z"/>
				<path fill="#87BA41" stroke="#87BA41" stroke-width="1.51" d="M669.175,402.41l54.052,13.972l1.302-31.908L669.175,402.41z"/>
				<path fill="#89BE41" stroke="#89BE41" stroke-width="1.51" d="M687.19,367.104l-18.016,35.306l55.354-17.936L687.19,367.104z"/>
				<path fill="#7FB141" stroke="#7FB141" stroke-width="1.51" d="M669.175,402.41l12.808,43.804l41.244-29.832L669.175,402.41z"/>
				<path fill="#97CA55" stroke="#97CA55" stroke-width="1.51" d="M646.383,275.912l-20.406,45.879l62.084-37.006L646.383,275.912z"/>
				<path fill="#96CA51" stroke="#96CA51" stroke-width="1.51" d="M688.061,284.785l-62.084,37.006l66.424,5.098L688.061,284.785z"/>
				<path fill="#91C749" stroke="#91C749" stroke-width="1.51" d="M625.977,321.791l61.214,45.313l5.21-40.215L625.977,321.791z"/>
				<path fill="#7CB041" stroke="#7CB041" stroke-width="1.51" d="M681.982,446.214l-53.185,29.453l63.603,16.237L681.982,446.214z"/>
				<path fill="#8DC443" stroke="#8DC443" stroke-width="1.51" d="M643.561,531.932l40.376,40.403l12.59-43.614L643.561,531.932z"/>
				<path fill="#85BA41" stroke="#85BA41" stroke-width="1.51" d="M692.4,491.904l-45.802,19.069l49.928,17.747L692.4,491.904z"/>
				<path fill="#85BC41" stroke="#85BC41" stroke-width="1.51" d="M646.599,510.974l-3.038,20.958l52.966-3.211L646.599,510.974z"/>
				<path fill="#7DB141" stroke="#7DB141" stroke-width="1.51" d="M669.175,402.41l-18.018,5.476l30.825,38.328L669.175,402.41z"/>
				<path fill="#8BC141" stroke="#8BC141" stroke-width="1.51" d="M625.977,321.791l-3.473,47.579l64.687-2.266L625.977,321.791z"/>
				<path fill="#7EB442" stroke="#7EB442" stroke-width="1.51" d="M628.798,475.667l17.801,35.307l45.802-19.069L628.798,475.667z"/>
				<path fill="#8DC442" stroke="#8DC442" stroke-width="1.51" d="M643.561,531.932l-13.459,39.837l53.835,0.566L643.561,531.932z"/>
				<path fill="#86BE40" stroke="#86BE40" stroke-width="1.51" d="M622.504,369.37l46.671,33.04l18.016-35.306L622.504,369.37z"/>
				<path fill="#77AA41" stroke="#77AA41" stroke-width="1.51" d="M651.157,407.886l-22.359,67.781l53.185-29.453L651.157,407.886z"/>
				<path fill="#91C051" stroke="#91C051" stroke-width="1.51" d="M547.613,280.443l14.977,6.418l83.793-10.95L547.613,280.443z"/>
				<path fill="#73A441" stroke="#73A441" stroke-width="1.51" d="M594.935,424.689l33.863,50.978l22.359-67.781L594.935,424.689z"/>
				<path fill="#82B841" stroke="#82B841" stroke-width="1.51" d="M622.504,369.37l28.653,38.516l18.018-5.476L622.504,369.37z"/>
				<path fill="#7BB041" stroke="#7BB041" stroke-width="1.51" d="M622.504,369.37l-27.569,55.319l56.223-16.804L622.504,369.37z"/>
				<path fill="#88BE42" stroke="#88BE42" stroke-width="1.51" d="M604.922,327.833l17.582,41.537l3.473-47.579L604.922,327.833z"/>
				<path fill="#91C34F" stroke="#91C34F" stroke-width="1.51" d="M562.59,286.862l63.387,34.929l20.406-45.879L562.59,286.862z"/>
				<path fill="#80B541" stroke="#80B541" stroke-width="1.51" d="M572.576,514.562l70.984,17.37l3.038-20.958L572.576,514.562z"/>
				<path fill="#7AAE42" stroke="#7AAE42" stroke-width="1.51" d="M628.798,475.667l-56.222,38.895l74.022-3.588L628.798,475.667z"/>
				<path fill="#86BD40" stroke="#86BD40" stroke-width="1.51" d="M572.576,554.966l57.525,16.803l13.459-39.837L572.576,554.966z"/>
				<path fill="#7BAF42" stroke="#7BAF42" stroke-width="1.51" d="M578.004,388.817l16.931,35.873l27.569-55.319L578.004,388.817z"/>
				<path fill="#8BBF46" stroke="#8BBF46" stroke-width="1.51" d="M562.59,286.862l42.332,40.971l21.055-6.042L562.59,286.862z"/>
				<path fill="#80B541" stroke="#80B541" stroke-width="1.51" d="M572.576,514.562v40.404l70.984-23.034L572.576,514.562z"/>
				<path fill="#84B342" stroke="#84B342" stroke-width="1.51" d="M521.129,583.664l-52.314,10.006l99.421-1.51L521.129,583.664z"/>
				<path fill="#74A741" stroke="#74A741" stroke-width="1.51" d="M581.043,468.869l-8.467,45.692l56.222-38.895L581.043,468.869z"/>
				<path fill="#71A241" stroke="#71A241" stroke-width="1.51" d="M594.935,424.689l-13.892,44.18l47.755,6.798L594.935,424.689z"/>
				<path fill="#86BB41" stroke="#86BB41" stroke-width="1.51" d="M572.576,554.966l-4.341,37.194l61.866-20.392L572.576,554.966z"/>
				<path fill="#83B841" stroke="#83B841" stroke-width="1.51" d="M604.922,327.833l-26.918,60.984l44.5-19.447L604.922,327.833z"/>
				<path fill="#81B541" stroke="#81B541" stroke-width="1.51" d="M528.294,325.379l49.71,63.438l26.918-60.984L528.294,325.379z"/>
				<path fill="#89BA43" stroke="#89BA43" stroke-width="1.51" d="M562.59,286.862l-34.296,38.518l76.628,2.454L562.59,286.862z"/>
				<path fill="#7BAE41" stroke="#7BAE41" stroke-width="1.51" d="M528.294,325.379l-11.072,55.886l60.782,7.552L528.294,325.379z"/>
				<path fill="#6B9B40" stroke="#6B9B40" stroke-width="1.51" d="M538.278,423.934l42.765,44.936l13.892-44.18L538.278,423.934z"/>
				<path fill="#71A241" stroke="#71A241" stroke-width="1.51" d="M578.004,388.817l-39.726,35.117l56.656,0.756L578.004,388.817z"/>
				<path fill="#82B741" stroke="#82B741" stroke-width="1.51" d="M544.792,559.874l23.443,32.286l4.341-37.194L544.792,559.874z"/>
				<path fill="#7CB141" stroke="#7CB141" stroke-width="1.51" d="M544.792,559.874l27.784-4.908v-40.404L544.792,559.874z"/>
				<path fill="#6B9B40" stroke="#6B9B40" stroke-width="1.51" d="M538.278,423.934l-17.149,53.244l59.914-8.309L538.278,423.934z"/>
				<path fill="#71A141" stroke="#71A141" stroke-width="1.51" d="M519.175,490.395l53.401,24.167l8.467-45.692L519.175,490.395z"/>
				<path fill="#6E9D40" stroke="#6E9D40" stroke-width="1.51" d="M521.129,477.178l-1.954,13.217l61.868-21.525L521.129,477.178z"/>
				<path fill="#72A441" stroke="#72A441" stroke-width="1.51" d="M517.222,381.265l21.057,42.668l39.726-35.117L517.222,381.265z"/>
				<path fill="#76A841" stroke="#76A841" stroke-width="1.51" d="M519.175,490.395l25.617,69.479l27.784-45.312L519.175,490.395z"/>
				<path fill="#89B949" stroke="#89B949" stroke-width="1.51" d="M547.613,280.443l-19.319,44.936l34.296-38.518L547.613,280.443z"/>
				<path fill="#83B641" stroke="#83B641" stroke-width="1.51" d="M544.792,559.874l-23.663,23.79l47.106,8.496L544.792,559.874z"/>
				<path fill="#6D9F41" stroke="#6D9F41" stroke-width="1.51" d="M517.222,381.265l-16.497,31.909l37.554,10.76L517.222,381.265z"/>
				<path fill="#78AA41" stroke="#78AA41" stroke-width="1.51" d="M519.175,490.395l-44.065,63.438l69.683,6.041L519.175,490.395z"/>
				<path fill="#86B644" stroke="#86B644" stroke-width="1.51" d="M505.067,316.882l23.227,8.497l19.319-44.936L505.067,316.882z"/>
				<path fill="#87B549" stroke="#87B549" stroke-width="1.51" d="M463.171,281.198l41.896,35.684l42.546-36.439L463.171,281.198z"/>
				<path fill="#67953F" stroke="#67953F" stroke-width="1.51" d="M500.725,413.174l20.404,64.004l17.149-53.244L500.725,413.174z"/>
				<path fill="#7EB141" stroke="#7EB141" stroke-width="1.51" d="M475.109,553.833l46.02,29.831l23.663-23.79L475.109,553.833z"/>
				<path fill="#70A141" stroke="#70A141" stroke-width="1.51" d="M465.342,502.289l9.768,51.544l44.065-63.438L465.342,502.289z"/>
				<path fill="#67953F" stroke="#67953F" stroke-width="1.51" d="M500.725,413.174l-32.997,58.529l53.401,5.475L500.725,413.174z"/>
				<path fill="#7EAF41" stroke="#7EAF41" stroke-width="1.51" d="M505.067,316.882l12.154,64.383l11.072-55.886L505.067,316.882z"/>
				<path fill="#7AAA41" stroke="#7AAA41" stroke-width="1.51" d="M505.067,316.882l-42.548,50.222l54.702,14.161L505.067,316.882z"/>
				<path fill="#66923E" stroke="#66923E" stroke-width="1.51" d="M452.1,454.521l15.628,17.182l32.997-58.529L452.1,454.521z"/>
				<path fill="#6B9940" stroke="#6B9940" stroke-width="1.51" d="M467.728,471.703l51.447,18.691l1.954-13.217L467.728,471.703z"/>
				<path fill="#7FAF41" stroke="#7FAF41" stroke-width="1.51" d="M475.109,553.833l-6.295,39.837l52.314-10.006L475.109,553.833z"/>
				<path fill="#6B9A40" stroke="#6B9A40" stroke-width="1.51" d="M467.728,471.703l-2.386,30.586l53.833-11.895L467.728,471.703z"/>
				<path fill="#71A341" stroke="#71A341" stroke-width="1.51" d="M462.52,367.104l38.205,46.069l16.497-31.909L462.52,367.104z"/>
				<path fill="#66923E" stroke="#66923E" stroke-width="1.51" d="M448.627,427.145l3.473,27.377l48.625-41.348L448.627,427.145z"/>
				<path fill="#81AF43" stroke="#81AF43" stroke-width="1.51" d="M463.171,281.198l-29.089,41.537l70.985-5.853L463.171,281.198z"/>
				<path fill="#7CAB41" stroke="#7CAB41" stroke-width="1.51" d="M434.082,322.735l28.438,44.369l42.548-50.222L434.082,322.735z"/>
				<path fill="#6C9C40" stroke="#6C9C40" stroke-width="1.51" d="M462.52,367.104l-13.893,60.04l52.098-13.971L462.52,367.104z"/>
				<path fill="#88BD43" stroke="#88BD43" stroke-width="1.51" d="M371.999,576.488l-30.824,30.21l91.606-34.93L371.999,576.488z"/>
				<path fill="#7AAA41" stroke="#7AAA41" stroke-width="1.51" d="M434.082,322.735l7.598,39.648l20.84,4.721L434.082,322.735z"/>
				<path fill="#70A141" stroke="#70A141" stroke-width="1.51" d="M441.68,362.384l6.947,64.761l13.893-60.04L441.68,362.384z"/>
				<path fill="#84B347" stroke="#84B347" stroke-width="1.51" d="M429.09,284.597l4.992,38.138l29.089-41.537L429.09,284.597z"/>
				<path fill="#72A341" stroke="#72A341" stroke-width="1.51" d="M418.02,503.611l-2.172,39.647l49.494-40.97L418.02,503.611z"/>
				<path fill="#86B842" stroke="#86B842" stroke-width="1.51" d="M432.781,571.769l-91.606,34.93l127.64-13.028L432.781,571.769z"/>
				<path fill="#73A541" stroke="#73A541" stroke-width="1.51" d="M465.342,502.289l-49.494,40.97l59.262,10.574L465.342,502.289z"/>
				<path fill="#7BAF42" stroke="#7BAF42" stroke-width="1.51" d="M415.848,543.259l16.934,28.51l42.328-17.936L415.848,543.259z"/>
				<path fill="#7CAD41" stroke="#7CAD41" stroke-width="1.51" d="M432.781,571.769l36.033,21.901l6.295-39.837L432.781,571.769z"/>
				<path fill="#6B9A40" stroke="#6B9A40" stroke-width="1.51" d="M418.02,503.611l47.322-1.322l2.386-30.586L418.02,503.611z"/>
				<path fill="#6A983F" stroke="#6A983F" stroke-width="1.51" d="M452.1,454.521l-34.08,49.09l49.708-31.908L452.1,454.521z"/>
				<path fill="#92C44F" stroke="#92C44F" stroke-width="1.51" d="M292.116,270.437l71.417,34.174l65.557-20.013L292.116,270.437z"/>
				<path fill="#7AAE42" stroke="#7AAE42" stroke-width="1.51" d="M375.256,363.14l-10.636,55.697l77.06-56.453L375.256,363.14z"/>
				<path fill="#71A241" stroke="#71A241" stroke-width="1.51" d="M441.68,362.384l-77.06,56.453l84.007,8.308L441.68,362.384z"/>
				<path fill="#68973F" stroke="#68973F" stroke-width="1.51" d="M448.627,427.145l-54.268,49.467l57.74-22.09L448.627,427.145z"/>
				<path fill="#6E9D40" stroke="#6E9D40" stroke-width="1.51" d="M394.359,476.611l23.66,27l34.08-49.09L394.359,476.611z"/>
				<path fill="#6B9A40" stroke="#6B9A40" stroke-width="1.51" d="M364.62,418.837l29.74,57.774l54.268-49.467L364.62,418.837z"/>
				<path fill="#7EB141" stroke="#7EB141" stroke-width="1.51" d="M434.082,322.735l-52.965,19.825l60.563,19.824L434.082,322.735z"/>
				<path fill="#7EB241" stroke="#7EB241" stroke-width="1.51" d="M381.117,342.56l-5.861,20.58l66.424-0.756L381.117,342.56z"/>
				<path fill="#89BA46" stroke="#89BA46" stroke-width="1.51" d="M429.09,284.597l-65.557,20.013l70.549,18.125L429.09,284.597z"/>
				<path fill="#87BA42" stroke="#87BA42" stroke-width="1.51" d="M363.533,304.61l17.583,37.95l52.965-19.825L363.533,304.61z"/>
				<path fill="#80B641" stroke="#80B641" stroke-width="1.51" d="M415.848,543.259l-43.849,33.229l60.783-4.72L415.848,543.259z"/>
				<path fill="#70A141" stroke="#70A141" stroke-width="1.51" d="M364.62,418.837l-13.46,28.698l43.2,29.076L364.62,418.837z"/>
				<path fill="#83B941" stroke="#83B941" stroke-width="1.51" d="M370.914,546.28l1.084,30.208l43.849-33.229L370.914,546.28z"/>
				<path fill="#7DB241" stroke="#7DB241" stroke-width="1.51" d="M370.914,512.295v33.985l44.934-3.021L370.914,512.295z"/>
				<path fill="#77AB41" stroke="#77AB41" stroke-width="1.51" d="M370.914,512.295l44.934,30.964l2.172-39.647L370.914,512.295z"/>
				<path fill="#73A541" stroke="#73A541" stroke-width="1.51" d="M394.359,476.611l-23.445,35.684l47.105-8.684L394.359,476.611z"/>
				<path fill="#98CB54" stroke="#98CB54" stroke-width="1.51" d="M267.371,586.874l-34.082,3.397l107.886,16.427L267.371,586.874z"/>
				<path fill="#77AA42" stroke="#77AA42" stroke-width="1.51" d="M343.779,485.484l27.135,26.811l23.445-35.684L343.779,485.484z"/>
				<path fill="#74A641" stroke="#74A641" stroke-width="1.51" d="M351.16,447.535l-7.38,37.949l50.58-8.873L351.16,447.535z"/>
				<path fill="#97C754" stroke="#97C754" stroke-width="1.51" d="M292.116,270.437l28.438,34.363l42.979-0.189L292.116,270.437z"/>
				<path fill="#86BD40" stroke="#86BD40" stroke-width="1.51" d="M370.914,546.28l-23.227,10.762l24.311,19.446L370.914,546.28z"/>
				<path fill="#7EB542" stroke="#7EB542" stroke-width="1.51" d="M327.064,371.825l37.556,47.012l10.636-55.697L327.064,371.825z"/>
				<path fill="#86BB40" stroke="#86BB40" stroke-width="1.51" d="M342.695,320.659l32.561,42.481l5.861-20.58L342.695,320.659z"/>
				<path fill="#8AC045" stroke="#8AC045" stroke-width="1.51" d="M363.533,304.61l-20.838,16.048l38.422,21.901L363.533,304.61z"/>
				<path fill="#82B941" stroke="#82B941" stroke-width="1.51" d="M347.688,557.042l23.227-10.762v-33.985L347.688,557.042z"/>
				<path fill="#86BC40" stroke="#86BC40" stroke-width="1.51" d="M342.695,320.659l-15.631,51.166l48.192-8.685L342.695,320.659z"/>
				<path fill="#80B641" stroke="#80B641" stroke-width="1.51" d="M303.404,490.016l44.283,67.026l23.227-44.747L303.404,490.016z"/>
				<path fill="#7BAF42" stroke="#7BAF42" stroke-width="1.51" d="M343.779,485.484l-40.375,4.531l67.51,22.279L343.779,485.484z"/>
				<path fill="#8BC145" stroke="#8BC145" stroke-width="1.51" d="M347.688,557.042l-6.513,49.656l30.824-30.21L347.688,557.042z"/>
				<path fill="#74A541" stroke="#74A541" stroke-width="1.51" d="M318.599,434.697l32.561,12.838l13.46-28.698L318.599,434.697z"/>
				<path fill="#7CAE41" stroke="#7CAE41" stroke-width="1.51" d="M327.064,371.825l-8.465,62.873l46.021-15.86L327.064,371.825z"/>
				<path fill="#91C44B" stroke="#91C44B" stroke-width="1.51" d="M320.554,304.799l22.141,15.859l20.838-16.048L320.554,304.799z"/>
				<path fill="#7AAA41" stroke="#7AAA41" stroke-width="1.51" d="M318.599,434.697l-30.391,31.53l55.571,19.257L318.599,434.697z"/>
				<path fill="#7DAF41" stroke="#7DAF41" stroke-width="1.51" d="M288.208,466.228l15.196,23.788l40.375-4.531L288.208,466.228z"/>
				<path fill="#91C54C" stroke="#91C54C" stroke-width="1.51" d="M267.371,586.874l73.804,19.824l6.513-49.656L267.371,586.874z"/>
				<path fill="#90C548" stroke="#90C548" stroke-width="1.51" d="M278.223,547.225l-10.853,39.649l80.317-29.832L278.223,547.225z"/>
				<path fill="#86BC40" stroke="#86BC40" stroke-width="1.51" d="M303.404,490.016l-25.181,57.209l69.464,9.817L303.404,490.016z"/>
				<path fill="#75A741" stroke="#75A741" stroke-width="1.51" d="M318.599,434.697l25.18,50.787l7.38-37.949L318.599,434.697z"/>
				<path fill="#8DC247" stroke="#8DC247" stroke-width="1.51" d="M266.936,328.777l60.128,43.048l15.631-51.166L266.936,328.777z"/>
				<path fill="#93C74E" stroke="#93C74E" stroke-width="1.51" d="M320.554,304.799l-53.618,23.978l75.759-8.118L320.554,304.799z"/>
				<path fill="#8DC247" stroke="#8DC247" stroke-width="1.51" d="M266.936,328.777l7.381,36.062l52.748,6.986L266.936,328.777z"/>
				<path fill="#7EB141" stroke="#7EB141" stroke-width="1.51" d="M262.16,426.578l56.439,8.119l8.465-62.873L262.16,426.578z"/>
				<path fill="#86BB40" stroke="#86BB40" stroke-width="1.51" d="M274.316,364.839l-12.156,61.739l64.904-54.753L274.316,364.839z"/>
				<path fill="#9ACB57" stroke="#9ACB57" stroke-width="1.51" d="M292.116,270.437l-36.469,47.201l64.906-12.838L292.116,270.437z"/>
				<path fill="#97CA53" stroke="#97CA53" stroke-width="1.51" d="M255.647,317.638l11.288,11.139l53.618-23.978L255.647,317.638z"/>
				<path fill="#7BAA41" stroke="#7BAA41" stroke-width="1.51" d="M262.16,426.578l26.048,39.649l30.391-31.53L262.16,426.578z"/>
				<path fill="#88BD43" stroke="#88BD43" stroke-width="1.51" d="M236.329,386.173l25.832,40.405l12.156-61.739L236.329,386.173z"/>
				<path fill="#9CCD5B" stroke="#9CCD5B" stroke-width="1.51" d="M248.267,301.589l7.38,16.049l36.469-47.201L248.267,301.589z"/>
				<path fill="#82B341" stroke="#82B341" stroke-width="1.51" d="M288.208,466.228l-49.492,42.48l64.688-18.692L288.208,466.228z"/>
				<path fill="#87BC41" stroke="#87BC41" stroke-width="1.51" d="M238.716,508.708l39.507,38.517l25.181-57.209L238.716,508.708z"/>
				<path fill="#7FAE41" stroke="#7FAE41" stroke-width="1.51" d="M262.16,426.578l-19.104,23.978l45.152,15.672L262.16,426.578z"/>
				<path fill="#A2CF65" stroke="#A2CF65" stroke-width="1.51" d="M192.479,274.212l55.788,27.376l43.849-31.152L192.479,274.212z"/>
				<path fill="#83B341" stroke="#83B341" stroke-width="1.51" d="M243.057,450.556l-4.34,58.152l49.492-42.48L243.057,450.556z"/>
				<path fill="#9BCC58" stroke="#9BCC58" stroke-width="1.51" d="M214.404,563.649l18.885,26.622l34.082-3.397L214.404,563.649z"/>
				<path fill="#95CA52" stroke="#95CA52" stroke-width="1.51" d="M214.404,563.649l52.967,23.225l10.853-39.649L214.404,563.649z"/>
				<path fill="#91C54B" stroke="#91C54B" stroke-width="1.51" d="M238.716,508.708l-24.312,54.941l63.819-16.425L238.716,508.708z"/>
				<path fill="#90C54B" stroke="#90C54B" stroke-width="1.51" d="M266.936,328.777l-30.607,57.396l37.988-21.334L266.936,328.777z"/>
				<path fill="#86B645" stroke="#86B645" stroke-width="1.51" d="M203.768,471.514l34.949,37.194l4.34-58.152L203.768,471.514z"/>
				<path fill="#9BCC58" stroke="#9BCC58" stroke-width="1.51" d="M255.647,317.638l-51.664,1.133l62.952,10.006L255.647,317.638z"/>
				<path fill="#96C953" stroke="#96C953" stroke-width="1.51" d="M203.984,318.771l32.345,67.402l30.607-57.396L203.984,318.771z"/>
				<path fill="#81AF42" stroke="#81AF42" stroke-width="1.51" d="M213.753,430.92l29.304,19.636l19.104-23.978L213.753,430.92z"/>
				<path fill="#86B744" stroke="#86B744" stroke-width="1.51" d="M236.329,386.173l-22.576,44.747l48.407-4.342L236.329,386.173z"/>
				<path fill="#96C752" stroke="#96C752" stroke-width="1.51" d="M203.984,318.771l-15.412,65.515l47.756,1.887L203.984,318.771z"/>
				<path fill="#9DCD5B" stroke="#9DCD5B" stroke-width="1.51" d="M248.267,301.589l-44.283,17.182l51.664-1.133L248.267,301.589z"/>
				<path fill="#91C34E" stroke="#91C34E" stroke-width="1.51" d="M190.525,508.708l23.878,54.941l24.312-54.941H190.525z"/>
				<path fill="#A2CF65" stroke="#A2CF65" stroke-width="1.51" d="M192.479,274.212l11.504,44.558l44.283-17.182L192.479,274.212z"/>
				<path fill="#8BBB4A" stroke="#8BBB4A" stroke-width="1.51" d="M185.533,402.222l28.22,28.698l22.576-44.747L185.533,402.222z"/>
				<path fill="#8BBB4A" stroke="#8BBB4A" stroke-width="1.51" d="M203.768,471.514l-13.242,37.194h48.191L203.768,471.514z"/>
				<path fill="#83B146" stroke="#83B146" stroke-width="1.51" d="M213.753,430.92l-9.985,40.594l39.289-20.958L213.753,430.92z"/>
				<path fill="#90C04D" stroke="#90C04D" stroke-width="1.51" d="M188.572,384.286l-3.039,17.936l50.795-16.049L188.572,384.286z"/>
				<path fill="#9DCD5C" stroke="#9DCD5C" stroke-width="1.51" d="M214.404,563.649l-30.174,14.916l49.059,11.706L214.404,563.649z"/>
				<path fill="#84B14A" stroke="#84B14A" stroke-width="1.51" d="M185.533,402.222l18.234,69.292l9.985-40.594L185.533,402.222z"/>
				<path fill="#98CB56" stroke="#98CB56" stroke-width="1.51" d="M190.525,508.708l-20.839,54.941h44.717L190.525,508.708z"/>
				<path fill="#9DCD5C" stroke="#9DCD5C" stroke-width="1.51" d="M169.687,563.649l14.543,14.916l30.174-14.916H169.687z"/>
				<path fill="#88B64E" stroke="#88B64E" stroke-width="1.51" d="M185.533,402.222l4.992,106.486l13.242-37.194L185.533,402.222z"/>
				<path fill="#A0CE5F" stroke="#A0CE5F" stroke-width="1.51" d="M192.479,274.212l-3.907,110.073l15.412-65.515L192.479,274.212z"/>
				<path fill="#8DBB51" stroke="#8DBB51" stroke-width="1.51" d="M185.533,402.222l-15.847,161.428l20.839-54.941L185.533,402.222z      "/>
				<path fill="#8CBA50" stroke="#8CBA50" stroke-width="1.51" d="M169.687,563.649l15.847-161.428l6.946-128.009L169.687,563.649z"/>
				<path fill="#9ACA5A" stroke="#9ACA5A" stroke-width="1.51" d="M185.533,402.222l3.039-17.936l3.907-110.073L185.533,402.222z"/>
			</g>
		</g>
		<path fill="none" d="M508.762,353.608c-0.55-2.34-1.87-4.29-3.62-5.66c-1.75-1.36-3.93-2.15-6.21-2.15    c-0.689,0-1.46,0.08-2.28,0.28c-2.329,0.53-4.279,1.84-5.649,3.59s-2.17,3.94-2.17,6.22c0,0.72,0.09,1.48,0.28,2.3    c0.529,2.32,1.84,4.28,3.59,5.65c1.739,1.37,3.93,2.16,6.199,2.16c0.771-0.01,1.54-0.1,2.29-0.27c2.33-0.53,4.29-1.85,5.66-3.6    c1.38-1.76,2.17-3.94,2.17-6.21C509.012,355.159,508.932,354.389,508.762,353.608z"/>
	</g>
</g>
</svg>